<svg width="0" height="0" class="hidden">
  <symbol xmlns="http://www.w3.org/2000/svg" viewBox="0 0 511.626 511.627" id="heart-shape-silhouette">
    <path d="M475.366 71.951c-24.175-23.606-57.575-35.404-100.215-35.404-11.8 0-23.843 2.046-36.117 6.136-12.279 4.093-23.702 9.615-34.256 16.562-10.568 6.945-19.65 13.467-27.269 19.556a263.828 263.828 0 00-21.696 19.414 264.184 264.184 0 00-21.698-19.414c-7.616-6.089-16.702-12.607-27.268-19.556-10.564-6.95-21.985-12.468-34.261-16.562-12.275-4.089-24.316-6.136-36.116-6.136-42.637 0-76.039 11.801-100.211 35.404C12.087 95.552 0 128.288 0 170.162c0 12.753 2.24 25.889 6.711 39.398 4.471 13.514 9.566 25.031 15.275 34.546 5.708 9.514 12.181 18.796 19.414 27.837 7.233 9.042 12.519 15.27 15.846 18.699 3.33 3.422 5.948 5.899 7.851 7.419L243.25 469.937c3.427 3.429 7.614 5.144 12.562 5.144s9.138-1.715 12.563-5.137l177.87-171.307c43.588-43.583 65.38-86.41 65.38-128.475.001-41.874-12.088-74.61-36.259-98.211z"></path>
  </symbol>
  <symbol xmlns="http://www.w3.org/2000/svg" viewBox="0 0 412.735 412.735" id="heart">
    <path d="M295.706 35.522a115.985 115.985 0 00-89.339 41.273 114.413 114.413 0 00-89.339-41.273C52.395 35.522 0 87.917 0 152.55c0 110.76 193.306 218.906 201.143 223.086a9.404 9.404 0 0010.449 0c7.837-4.18 201.143-110.759 201.143-223.086 0-64.633-52.396-117.028-117.029-117.028zm-89.339 319.216C176.065 336.975 20.898 242.412 20.898 152.55c0-53.091 43.039-96.131 96.131-96.131a94.041 94.041 0 0180.457 43.363c3.557 4.905 10.418 5.998 15.323 2.44a10.968 10.968 0 002.44-2.44c29.055-44.435 88.631-56.903 133.066-27.848a96.129 96.129 0 0143.521 80.615c.001 90.907-155.167 184.948-185.469 202.189z"></path>
  </symbol>
</svg>